<svg width="24" height="24" viewBox="0 0 24 24" fill="none" xmlns="http://www.w3.org/2000/svg">
<path d="M12 21.4375C17.3675 21.4375 21.7188 17.0863 21.7188 11.7188C21.7188 6.35124 17.3675 2 12 2C6.63249 2 2.28125 6.35124 2.28125 11.7188C2.28125 17.0863 6.63249 21.4375 12 21.4375ZM11.9983 6.06967C15.2026 6.06967 17.8172 8.07761 17.9621 10.5977C17.972 10.7522 17.9739 10.9071 17.9679 11.0618C17.9594 11.183 17.9437 11.3037 17.9208 11.423C17.8458 11.8824 17.6913 12.3252 17.4642 12.7314C17.3573 12.9243 16.8337 13.6581 16.6731 13.8514C15.7906 14.9147 14.3124 16.1419 11.8406 17.3347C11.7883 17.3601 11.7301 17.371 11.6721 17.3663C11.6142 17.3615 11.5585 17.3414 11.511 17.3079C11.4634 17.2743 11.4258 17.2287 11.4019 17.1757C11.3779 17.1227 11.3687 17.0642 11.375 17.0064L11.4996 15.8853C11.5043 15.8428 11.5007 15.7998 11.4888 15.7588C11.4768 15.7177 11.4569 15.6794 11.4302 15.6461C11.4034 15.6127 11.3703 15.585 11.3328 15.5645C11.2953 15.5439 11.2541 15.5311 11.2116 15.5265C8.2859 15.2203 6.02785 13.2293 6.02785 10.8186C6.02803 8.19577 8.70105 6.06967 11.9983 6.06967Z" fill="white"/>
<path d="M8.37282 12.1768H9.5944C9.67539 12.1768 9.75305 12.1446 9.81032 12.0873C9.86758 12.0301 9.89975 11.9524 9.89975 11.8714C9.89975 11.7904 9.86758 11.7128 9.81032 11.6555C9.75305 11.5983 9.67539 11.5661 9.5944 11.5661H8.67808V9.56569C8.67808 9.48471 8.64591 9.40704 8.58865 9.34978C8.53138 9.29252 8.45372 9.26034 8.37273 9.26034C8.29175 9.26034 8.21408 9.29252 8.15682 9.34978C8.09955 9.40704 8.06738 9.48471 8.06738 9.56569V11.8713C8.06738 11.9524 8.09956 12.03 8.15684 12.0873C8.21413 12.1446 8.29182 12.1768 8.37282 12.1768ZM11.5641 12.1768C11.6451 12.1768 11.7228 12.1446 11.78 12.0873C11.8373 12.03 11.8695 11.9524 11.8695 11.8713V10.4713C11.8695 10.4713 13.1077 12.076 13.1262 12.0933C13.1819 12.1464 13.2558 12.1763 13.3327 12.1767C13.4155 12.1746 13.4941 12.1401 13.5517 12.0807C13.6094 12.0212 13.6414 11.9416 13.641 11.8588V9.56569C13.64 9.48532 13.6074 9.40858 13.5502 9.35209C13.493 9.2956 13.4159 9.26392 13.3355 9.26392C13.2551 9.26392 13.178 9.2956 13.1208 9.35209C13.0636 9.40858 13.031 9.48532 13.03 9.56569V10.9742C13.03 10.9742 11.8104 9.38343 11.7918 9.36255C11.7619 9.32891 11.7249 9.30232 11.6835 9.2847C11.6421 9.26709 11.5972 9.25887 11.5523 9.26066C11.4719 9.26578 11.3966 9.30162 11.342 9.36075C11.2873 9.41988 11.2575 9.49776 11.2587 9.57826V11.8713C11.2587 11.9523 11.2909 12.03 11.3481 12.0873C11.4054 12.1446 11.4831 12.1768 11.5641 12.1768ZM10.4285 12.1768H10.5621C10.5934 12.1768 10.6245 12.1706 10.6534 12.1586C10.6824 12.1466 10.7087 12.129 10.7308 12.1068C10.753 12.0846 10.7706 12.0583 10.7825 12.0293C10.7945 12.0004 10.8007 11.9693 10.8007 11.938V9.49888C10.8007 9.4356 10.7755 9.37491 10.7308 9.33016C10.686 9.28541 10.6254 9.26027 10.5621 9.26025H10.4285C10.3653 9.26027 10.3046 9.28541 10.2598 9.33016C10.2151 9.37491 10.1899 9.4356 10.1899 9.49888V11.938C10.1899 11.9693 10.1961 12.0004 10.208 12.0293C10.22 12.0583 10.2376 12.0846 10.2598 12.1068C10.2819 12.129 10.3082 12.1466 10.3372 12.1586C10.3662 12.1706 10.3972 12.1768 10.4285 12.1768ZM14.4041 12.1768H15.6257C15.7067 12.1768 15.7844 12.1446 15.8416 12.0873C15.8989 12.0301 15.9311 11.9524 15.9311 11.8714C15.9311 11.7904 15.8989 11.7128 15.8416 11.6555C15.7844 11.5983 15.7067 11.5661 15.6257 11.5661H14.7094V11.024H15.6256C15.706 11.023 15.7827 10.9904 15.8392 10.9332C15.8957 10.876 15.9274 10.7989 15.9274 10.7185C15.9274 10.6381 15.8957 10.561 15.8392 10.5038C15.7827 10.4466 15.706 10.414 15.6256 10.413H14.7094V9.87095H15.6256C15.7066 9.87095 15.7842 9.83879 15.8415 9.78155C15.8987 9.7243 15.9309 9.64665 15.9309 9.56569C15.9309 9.48473 15.8987 9.40709 15.8415 9.34984C15.7842 9.2926 15.7066 9.26044 15.6256 9.26044H14.4041C14.3231 9.26045 14.2455 9.29261 14.1882 9.34986C14.131 9.4071 14.0988 9.48474 14.0988 9.56569V11.8713C14.0988 11.9114 14.1067 11.9512 14.122 11.9882C14.1373 12.0253 14.1598 12.0589 14.1882 12.0873C14.2165 12.1156 14.2502 12.1381 14.2872 12.1535C14.3242 12.1689 14.364 12.1768 14.4041 12.1768Z" fill="white"/>
</svg>
